name D:\school\WTK\thesis\model\3dpredictsim\Results\batch_windlass\Pog_s1_tmt_bCst_d00_k500_WL30_ig24_pas.mot
datacolumns 128
datarows 4
range 0.00000000 0.03382461
endheader
time	pelvis_tilt	pelvis_list	pelvis_rotation	pelvis_tx	pelvis_ty	pelvis_tz	hip_flexion_l	hip_adduction_l	hip_rotation_l	hip_flexion_r	hip_adduction_r	hip_rotation_r	knee_angle_l	knee_angle_r	ankle_angle_l	ankle_angle_r	subtalar_angle_l	subtalar_angle_r	tmt_angle_l	tmt_angle_r	mtp_angle_l	mtp_angle_r	lumbar_extension	lumbar_bending	lumbar_rotation	arm_flex_l	arm_add_l	arm_rot_l	arm_flex_r	arm_add_r	arm_rot_r	elbow_flex_l	elbow_flex_r	pro_sup_l	pro_sup_r	glut_med1_l/activation	glut_med2_l/activation	glut_med3_l/activation	glut_min1_l/activation	glut_min2_l/activation	glut_min3_l/activation	semimem_l/activation	semiten_l/activation	bifemlh_l/activation	bifemsh_l/activation	sar_l/activation	add_long_l/activation	add_brev_l/activation	add_mag1_l/activation	add_mag2_l/activation	add_mag3_l/activation	tfl_l/activation	pect_l/activation	grac_l/activation	glut_max1_l/activation	glut_max2_l/activation	glut_max3_l/activation	iliacus_l/activation	psoas_l/activation	quad_fem_l/activation	gem_l/activation	peri_l/activation	rect_fem_l/activation	vas_med_l/activation	vas_int_l/activation	vas_lat_l/activation	med_gas_l/activation	lat_gas_l/activation	soleus_l/activation	tib_post_l/activation	flex_dig_l/activation	flex_hal_l/activation	tib_ant_l/activation	per_brev_l/activation	per_long_l/activation	per_tert_l/activation	ext_dig_l/activation	ext_hal_l/activation	ercspn_l/activation	intobl_l/activation	extobl_l/activation	glut_med1_r/activation	glut_med2_r/activation	glut_med3_r/activation	glut_min1_r/activation	glut_min2_r/activation	glut_min3_r/activation	semimem_r/activation	semiten_r/activation	bifemlh_r/activation	bifemsh_r/activation	sar_r/activation	add_long_r/activation	add_brev_r/activation	add_mag1_r/activation	add_mag2_r/activation	add_mag3_r/activation	tfl_r/activation	pect_r/activation	grac_r/activation	glut_max1_r/activation	glut_max2_r/activation	glut_max3_r/activation	iliacus_r/activation	psoas_r/activation	quad_fem_r/activation	gem_r/activation	peri_r/activation	rect_fem_r/activation	vas_med_r/activation	vas_int_r/activation	vas_lat_r/activation	med_gas_r/activation	lat_gas_r/activation	soleus_r/activation	tib_post_r/activation	flex_dig_r/activation	flex_hal_r/activation	tib_ant_r/activation	per_brev_r/activation	per_long_r/activation	per_tert_r/activation	ext_dig_r/activation	ext_hal_r/activation	ercspn_r/activation	intobl_r/activation	extobl_r/activation	
          0.00000000	         -2.92625564	         -2.00653928	          6.18170283	          0.00000000	          0.85744901	         -0.00294832	        -17.84725488	         -1.72171859	          7.45572726	         31.58958382	          2.70731984	         -3.04682047	         -9.95748932	        -15.34769775	          0.38078104	          5.91831159	         12.18438203	         -1.39340946	         -7.62089290	         -0.29452255	         28.63321573	          0.95458451	         -1.47769163	          0.44726180	         -2.13361705	          5.52150021	        -13.47431742	         16.25273168	        -10.61950823	        -13.57496204	          6.14676564	         40.34409073	         17.13385979	         86.51662706	         86.51662706	          0.28078896	          0.08236625	          0.05000045	          0.29499296	          0.17435340	          0.08280613	          0.05001223	          0.05000208	          0.05000156	          0.06670923	          0.07843423	          0.13785323	          0.05454211	          0.05001224	          0.05001116	          0.05000429	          0.24612714	          0.08802001	          0.05000825	          0.05001106	          0.05000660	          0.05000404	          0.32206014	          0.52854572	          0.05000102	          0.05000288	          0.05000088	          0.22573046	          0.11875250	          0.10954656	          0.06053873	          0.26117519	          0.34453593	          0.22486387	          0.20114778	          0.19292566	          0.26525756	          0.05000025	          0.12369883	          0.17805546	          0.05000207	          0.05000055	          0.05000161	          0.05000037	          0.05000043	          0.05000090	          0.05000888	          0.05000385	          0.05001325	          0.05000545	          0.05000529	          0.05001211	          0.05939574	          0.05001037	          0.19004986	          0.05000160	          0.05002102	          0.10064153	          0.18310832	          0.13249912	          0.17003104	          0.12527033	          0.05000789	          0.05934540	          0.05656223	          0.05000769	          0.11750147	          0.11983080	          0.05795281	          0.05675941	          0.23029646	          0.05307887	          0.05009498	          0.05513696	          0.16031854	          0.16023078	          0.13544746	          0.05939536	          0.05465580	          0.05939569	          0.05000052	          0.05000531	          0.05000989	          0.55561120	          0.35107439	          0.19668916	          0.31413087	          0.61239431	          0.32753306	          0.05121460	          0.09524060	          0.09956100	
          0.01127487	         -2.91629344	         -2.08434920	          6.39288013	          0.01763599	          0.85661392	         -0.00271485	        -17.62470713	         -2.01469151	          7.23360988	         30.83137063	          3.11565375	         -2.83820843	        -12.00052490	        -15.13035471	         -0.78720644	          5.44198307	         13.16409827	         -1.87560059	         -8.40047573	         -0.34453783	         29.62424750	          1.20638806	         -1.24040272	          0.69311254	         -2.22373185	          5.18094733	        -13.50374563	         16.51259150	        -11.79026978	        -13.56116960	          5.98411883	         41.50520407	         17.04072035	         86.51662706	         86.51662706	          0.23637203	          0.06933730	          0.05000484	          0.24832955	          0.14677330	          0.06970806	          0.05001703	          0.05000131	          0.05000165	          0.05615683	          0.06602805	          0.19346136	          0.19359850	          0.16994760	          0.07061921	          0.13805517	          0.20719386	          0.07410237	          0.05000302	          0.05004021	          0.05004255	          0.05018311	          0.27111424	          0.45167649	          0.05000372	          0.05006455	          0.05939616	          0.19002270	          0.11827706	          0.11827833	          0.11827586	          0.21986029	          0.29003440	          0.18929299	          0.16932890	          0.16240841	          0.22329774	          0.07547111	          0.10413197	          0.14988984	          0.05000287	          0.11370762	          0.05000460	          0.06079699	          0.07055722	          0.05002206	          0.05000104	          0.05000455	          0.10350709	          0.05000155	          0.05000255	          0.05000292	          0.05000077	          0.05000292	          0.15998680	          0.05000269	          0.05000597	          0.08472329	          0.15414541	          0.34199401	          0.24413197	          0.10956335	          0.05000315	          0.05001724	          0.05001440	          0.05939675	          0.13643120	          0.13460991	          0.05000073	          0.05000220	          0.51065916	          0.10083278	          0.07227950	          0.07055716	          0.24269348	          0.24792486	          0.21032070	          0.05000014	          0.05000030	          0.05000007	          0.05007347	          0.07054639	          0.05632060	          0.63687098	          0.35263893	          0.22269219	          0.45315022	          0.62983736	          0.27577030	          0.05000012	          0.08017469	          0.08381167	
          0.02254974	         -2.90135153	         -2.16912939	          6.57479879	          0.03545793	          0.85557750	         -0.00250558	        -17.30332351	         -2.29261577	          6.99911955	         29.93010167	          3.46001683	         -2.55996136	        -14.23881273	        -15.41861411	         -2.01170348	          4.93280783	         14.06040191	         -2.40146329	         -8.93979882	         -0.68093739	         29.93787230	          1.40689390	         -0.99195130	          0.95275834	         -2.29953291	          4.77452232	        -13.53341602	         16.69714288	        -12.92603713	        -13.55887447	          5.92636911	         42.64116180	         16.89302831	         86.51662706	         86.51662706	          0.29314996	          0.05836947	          0.05000119	          0.20904866	          0.12355621	          0.05868199	          0.05002461	          0.05000977	          0.05001789	          0.05000105	          0.05558593	          0.16731931	          0.33235695	          0.14306776	          0.05946621	          0.11622006	          0.17442039	          0.08380668	          0.05605379	          0.05003131	          0.05002782	          0.05092904	          0.22822750	          0.41315897	          0.05001544	          0.05000875	          0.05000165	          0.15996335	          0.09956720	          0.09956825	          0.09956614	          0.18508094	          0.24415442	          0.15934903	          0.14254342	          0.13671849	          0.18797563	          0.17197869	          0.17770533	          0.18653415	          0.05000492	          0.23023421	          0.13312018	          0.07969660	          0.05939595	          0.05000135	          0.30411509	          0.27074324	          0.31128119	          0.08760215	          0.05000983	          0.21111462	          0.09130513	          0.05000374	          0.15124588	          0.05000075	          0.05000433	          0.07151978	          0.20643308	          0.28789654	          0.24391402	          0.16067299	          0.05000271	          0.07055650	          0.12147421	          0.05000208	          0.16100433	          0.13036606	          0.05014755	          0.05000355	          0.42987911	          0.08488354	          0.21103453	          0.05939596	          0.20430337	          0.20870819	          0.17705161	          0.05939543	          0.05939497	          0.05939570	          0.05000056	          0.05938883	          0.05939350	          0.60106952	          0.39807420	          0.18746598	          0.60904442	          0.67819555	          0.23214726	          0.05283027	          0.08384711	          0.07055372	
          0.03382461	         -2.88362487	         -2.26284997	          6.72232350	          0.05321447	          0.85435837	         -0.00228260	        -16.84015114	         -2.55502810	          6.77090121	         28.93724863	          3.78215725	         -2.25320138	        -16.73843457	        -15.79583024	         -3.18190008	          4.79213384	         14.85402862	         -2.94778061	         -9.00326172	         -1.37142141	         29.07122853	          1.56656976	         -0.75525011	          1.22540350	         -2.36306566	          4.34432694	        -13.56617365	         16.82275242	        -13.97040647	        -13.56774468	          5.99443308	         43.72795260	         16.66112227	         86.51662706	         86.51662706	          0.24677872	          0.05000198	          0.05000087	          0.24126048	          0.10401225	          0.05000451	          0.05006207	          0.05000308	          0.05000269	          0.05000565	          0.05940168	          0.14085887	          0.27978289	          0.12043731	          0.05006204	          0.09783700	          0.18985454	          0.07055308	          0.05000776	          0.05001419	          0.05000829	          0.05000356	          0.19212521	          0.38554935	          0.05000099	          0.05000508	          0.05000189	          0.13465905	          0.08381698	          0.08381785	          0.08381606	          0.15580331	          0.20553223	          0.13414187	          0.12181786	          0.11509328	          0.15824475	          0.18840463	          0.15356851	          0.15705416	          0.12659934	          0.21643972	          0.11206348	          0.11242614	          0.05000026	          0.05000043	          0.39387749	          0.44180937	          0.51404643	          0.24216145	          0.27221813	          0.37873061	          0.07686271	          0.11646726	          0.12732082	          0.07060850	          0.05001097	          0.06020657	          0.17377807	          0.24235617	          0.20535021	          0.17311169	          0.05000234	          0.05939909	          0.11263453	          0.27910779	          0.22595901	          0.17174213	          0.05000108	          0.05000111	          0.36187776	          0.07146116	          0.25915385	          0.05000049	          0.17198890	          0.25710130	          0.18609759	          0.05000013	          0.05000025	          0.05000004	          0.05000013	          0.05000231	          0.05000124	          0.75716370	          0.33510459	          0.15781193	          0.77680638	          0.70773521	          0.50086185	          0.08174842	          0.07058414	          0.05939303	
